<svg width="101" height="101" viewBox="0 0 101 101" fill="none" xmlns="http://www.w3.org/2000/svg">
<g clip-path="url(#clip0_10_14)">
<path fill-rule="evenodd" clip-rule="evenodd" d="M93.0368 0.495237C93.4895 0.775202 93.8632 1.16615 94.1224 1.63101C94.3816 2.09587 94.5178 2.61923 94.5181 3.15149V96.9015C94.5181 97.7303 94.1888 98.5251 93.6028 99.1112C93.0167 99.6973 92.2219 100.026 91.3931 100.026H72.6431C71.8143 100.026 71.0194 99.6973 70.4334 99.1112C69.8473 98.5251 69.5181 97.7303 69.5181 96.9015V87.5265H63.2681V96.9015C63.2681 97.7303 62.9388 98.5251 62.3528 99.1112C61.7667 99.6973 60.9719 100.026 60.1431 100.026H3.89307C3.06426 100.026 2.26941 99.6973 1.68336 99.1112C1.09731 98.5251 0.768066 97.7303 0.768066 96.9015V62.5265C0.768564 61.8709 0.975242 61.232 1.35885 60.7004C1.74245 60.1687 2.28355 59.7712 2.90557 59.564L38.2681 47.7765V28.1515C38.2681 27.5716 38.4294 27.0032 38.7341 26.5098C39.0387 26.0164 39.4746 25.6175 39.9931 25.3577L89.9931 0.357737C90.47 0.119023 91.0001 0.0063379 91.5328 0.0304059C92.0656 0.054474 92.5834 0.214495 93.0368 0.495237V0.495237ZM38.2681 54.364L7.01807 64.7765V93.7765H38.2681V54.364ZM44.5181 93.7765H57.0181V84.4015C57.0181 83.5727 57.3473 82.7778 57.9334 82.1918C58.5194 81.6057 59.3143 81.2765 60.1431 81.2765H72.6431C73.4719 81.2765 74.2667 81.6057 74.8528 82.1918C75.4388 82.7778 75.7681 83.5727 75.7681 84.4015V93.7765H88.2681V8.20774L44.5181 30.0827V93.7765Z" fill="#00CCC0"/>
<path d="M13.2681 68.7761H19.5181V75.0261H13.2681V68.7761ZM25.7681 68.7761H32.0181V75.0261H25.7681V68.7761ZM13.2681 81.2761H19.5181V87.5261H13.2681V81.2761ZM25.7681 81.2761H32.0181V87.5261H25.7681V81.2761ZM50.7681 56.2761H57.0181V62.5261H50.7681V56.2761ZM63.2681 56.2761H69.5181V62.5261H63.2681V56.2761ZM50.7681 68.7761H57.0181V75.0261H50.7681V68.7761ZM63.2681 68.7761H69.5181V75.0261H63.2681V68.7761ZM75.7681 56.2761H82.0181V62.5261H75.7681V56.2761ZM75.7681 68.7761H82.0181V75.0261H75.7681V68.7761ZM50.7681 43.7761H57.0181V50.0261H50.7681V43.7761ZM63.2681 43.7761H69.5181V50.0261H63.2681V43.7761ZM75.7681 43.7761H82.0181V50.0261H75.7681V43.7761ZM50.7681 31.2761H57.0181V37.5261H50.7681V31.2761ZM63.2681 31.2761H69.5181V37.5261H63.2681V31.2761ZM75.7681 31.2761H82.0181V37.5261H75.7681V31.2761ZM75.7681 18.7761H82.0181V25.0261H75.7681V18.7761Z" fill="#00CCC0"/>
</g>
<defs>
<clipPath id="clip0_10_14">
<rect width="100" height="100" fill="white" transform="translate(0.768066 0.026062)"/>
</clipPath>
</defs>
</svg>
