<svg width="24" height="25" viewBox="0 0 24 25" fill="none" xmlns="http://www.w3.org/2000/svg">
<path d="M15.6497 2.72287C16.0742 2.72187 16.4099 3.05171 16.4109 3.49149L16.4119 4.24111C19.1665 4.45701 20.9862 6.33407 20.9891 9.21262L21 17.6384C21.0039 20.7768 19.0322 22.7079 15.8718 22.7129L8.15189 22.7229C5.0112 22.7269 3.01482 20.7498 3.01087 17.6024L3.00001 9.27559C2.99606 6.37804 4.75153 4.50598 7.50618 4.25311L7.50519 3.50348C7.5042 3.0637 7.83002 2.73287 8.26445 2.73287C8.69887 2.73187 9.02469 3.0617 9.02568 3.50148L9.02666 4.20113L14.8914 4.19314L14.8904 3.49349C14.8894 3.05371 15.2152 2.72387 15.6497 2.72287ZM16.0525 16.9148H16.0426C15.5884 16.9258 15.2241 17.3066 15.234 17.7663C15.235 18.2261 15.6013 18.6049 16.0555 18.6149C16.5185 18.6139 16.8937 18.2331 16.8927 17.7633C16.8927 17.2936 16.5165 16.9148 16.0525 16.9148ZM7.91691 16.9158C7.46274 16.9358 7.1073 17.3166 7.10828 17.7763C7.12902 18.2361 7.5042 18.5959 7.95837 18.5749C8.40366 18.5549 8.75811 18.1741 8.73738 17.7144C8.7275 17.2646 8.3612 16.9148 7.91691 16.9158ZM11.9847 16.9108C11.5305 16.9318 11.1761 17.3116 11.1761 17.7713C11.1968 18.2311 11.572 18.5899 12.0262 18.5699C12.4705 18.5489 12.8259 18.1691 12.8052 17.7084C12.7953 17.2596 12.429 16.9098 11.9847 16.9108ZM7.91197 13.3176C7.4578 13.3376 7.10335 13.7184 7.10433 14.1781C7.12408 14.6379 7.50025 14.9977 7.95442 14.9767C8.39872 14.9567 8.75317 14.5759 8.73244 14.1162C8.72257 13.6664 8.35725 13.3166 7.91197 13.3176ZM11.9807 13.2826C11.5266 13.3026 11.1711 13.6834 11.1721 14.1432C11.1919 14.6029 11.568 14.9617 12.0222 14.9418C12.4665 14.9208 12.821 14.541 12.8012 14.0812C12.7904 13.6314 12.425 13.2816 11.9807 13.2826ZM16.0485 13.2876C15.5944 13.2976 15.2389 13.6674 15.2399 14.1272V14.1382C15.2498 14.5979 15.625 14.9468 16.0801 14.9368C16.5244 14.9258 16.8789 14.545 16.869 14.0852C16.8483 13.6454 16.4918 13.2866 16.0485 13.2876ZM14.8934 5.73237L9.02864 5.74036L9.02962 6.54896C9.02962 6.97974 8.70479 7.31957 8.27037 7.31957C7.83595 7.32057 7.50914 6.98174 7.50914 6.55096L7.50815 5.78134C5.58286 5.97425 4.51754 7.10568 4.52049 9.27359L4.52149 9.58444L19.4696 9.56445V9.21462C19.4272 7.0657 18.349 5.93826 16.4138 5.77035L16.4148 6.53996C16.4148 6.96975 16.0801 7.31058 15.6556 7.31058C15.2212 7.31158 14.8944 6.97175 14.8944 6.54196L14.8934 5.73237Z" fill="white"/>
</svg>
