<svg width="101" height="101" viewBox="0 0 101 101" fill="none" xmlns="http://www.w3.org/2000/svg">
<path d="M91.0356 12.6511H84.7856V7.65262C84.7856 5.24481 82.9763 3.27606 80.77 3.27606H60.67C58.47 3.27606 56.6606 5.24481 56.6606 7.65262V12.6511H19.0685L9.78564 31.4011H16.231V43.9011H15.1872L9.98096 50.1511L15.1872 56.4011H16.3278V59.7573C16.3278 60.6057 16.9825 61.2917 17.7935 61.2917C20.2169 61.2917 22.1888 63.3604 22.1888 65.9026C22.1888 68.4448 20.2169 70.5136 17.7935 70.5136C15.37 70.5136 13.3981 68.4448 13.3981 65.9026C13.3981 65.0542 12.7419 64.3682 11.9325 64.3682C11.1216 64.3682 10.4669 65.0542 10.4669 65.9026C10.47 70.1433 13.7544 73.5886 17.7935 73.5886C21.831 73.5886 25.1185 70.1433 25.1185 65.9042C25.1185 62.1933 22.5981 59.087 19.2591 58.3761V56.4011H20.3981L25.606 50.1511L20.3981 43.9011H19.356V31.4011H56.6606V42.6495C56.6606 44.7245 58.006 46.4636 59.7856 46.9104V97.0261H63.8872V87.6511L77.5591 92.3386L63.8872 97.0261H81.6606V46.9089C83.4419 46.4636 84.7856 44.7245 84.7856 42.6495V31.4011H91.0356V26.7136H87.7888L91.0356 20.5495V12.6511ZM17.0403 26.7136L20.6903 19.2151L24.6372 26.7136H17.0403ZM23.9497 17.3386H30.4388L27.195 23.5026L23.9497 17.3386V17.3386ZM29.7528 26.7136L32.9981 20.5495L36.245 26.7136H29.7528ZM35.5575 17.3386H42.0466L38.8013 23.5026L35.5575 17.3386ZM41.3622 26.7136L44.606 20.5495L47.8497 26.7136H41.3622ZM47.1653 17.3386H53.6544L50.4106 23.5026L47.1653 17.3386ZM56.6606 26.7136H52.9685L56.2122 20.5495L56.6606 21.4011V26.7136ZM77.5591 87.6511L63.8872 82.9636L77.5591 78.2761V87.6511ZM63.8872 78.2761V68.9011L77.5591 73.5917L63.8872 78.2761ZM77.5591 68.9011L63.8872 64.2136L77.5591 59.5261V68.9011ZM63.8872 59.5261V50.1542L77.5591 54.8386L63.8872 59.5261ZM77.5591 50.1542L68.4419 47.0261H77.5591V50.1542ZM79.9028 23.9761C79.9028 25.4807 78.8466 26.7136 77.5591 26.7136H63.4935C62.206 26.7136 61.1528 25.4807 61.1528 23.9761V10.7104C61.1528 9.19637 62.206 7.96356 63.4935 7.96356H77.5591C78.8466 7.96356 79.9028 9.19637 79.9028 10.7104V23.9761V23.9761ZM85.231 23.5026L84.7856 22.6557V17.3386H88.4747L85.231 23.5026" fill="#00CCC0"/>
</svg>
