<svg width="219" height="42" viewBox="0 0 219 42" fill="none" xmlns="http://www.w3.org/2000/svg">
<path d="M43.016 14.8279H55.728V18.4119H46.796V23.2838H54.832V26.8679H46.796V34.8759H43.016V14.8279Z" fill="#2B2B2B"/>
<path d="M62.8133 14.8279H67.1253L74.6573 34.8759H70.4853L68.8333 30.0879H61.1053L59.4533 34.8759H55.2813L62.8133 14.8279ZM67.6013 26.6159L65.8093 21.6038L65.0813 19.1678H64.8573L64.1293 21.6038L62.3373 26.6159H67.6013Z" fill="#2B2B2B"/>
<path d="M79.9668 25.5519L73.2188 14.8279H77.7268L81.7308 21.4639H81.9548L85.8188 14.8279H90.3828L83.7468 25.5519V34.8759H79.9668V25.5519Z" fill="#2B2B2B"/>
<path d="M91.3335 31.0679L101.497 18.4119H91.7815V14.8279H105.893V18.6358L95.8415 31.2919H106.005V34.8759H91.3335V31.0679Z" fill="#2B2B2B"/>
<path d="M115.286 34.8759V14.8279H122.538C124.124 14.8279 125.487 15.3505 126.626 16.3959C127.764 17.4225 128.334 18.7198 128.334 20.2878C128.334 22.2665 127.428 23.6572 125.618 24.4599V24.5718C126.644 24.9078 127.466 25.4958 128.082 26.3358C128.698 27.1572 129.006 28.0999 129.006 29.1639C129.006 30.8065 128.408 32.1692 127.214 33.2519C126.056 34.3345 124.628 34.8759 122.93 34.8759H115.286ZM117.862 17.2919V23.4239H122.538C123.452 23.4239 124.218 23.1158 124.834 22.4998C125.45 21.8652 125.758 21.1465 125.758 20.3438C125.758 19.5598 125.459 18.8505 124.862 18.2158C124.264 17.5998 123.527 17.2919 122.65 17.2919H117.862ZM117.862 25.8319V32.4118H123.042C123.975 32.4118 124.768 32.0852 125.422 31.4319C126.056 30.7785 126.374 30.0039 126.374 29.1079C126.374 28.2305 126.047 27.4652 125.394 26.8118C124.74 26.1585 123.919 25.8319 122.93 25.8319H117.862Z" fill="#2B2B2B"/>
<path d="M138.917 17.9918L135.641 27.0359H142.305L139.029 17.9918H138.917ZM132.813 34.8759H129.957L137.517 14.8279H140.429L147.989 34.8759H145.133L143.201 29.4439H134.773L132.813 34.8759Z" fill="#2B2B2B"/>
<path d="M152.916 17.2919V24.3479H157.06C158.106 24.3479 158.992 24.0118 159.72 23.3398C160.448 22.6492 160.812 21.7998 160.812 20.7919C160.812 19.8585 160.467 19.0465 159.776 18.3559C159.104 17.6465 158.255 17.2919 157.228 17.2919H152.916ZM152.916 34.8759H150.34V14.8279H157.172C158.908 14.8279 160.383 15.4065 161.596 16.5638C162.828 17.7025 163.444 19.1118 163.444 20.7919C163.444 22.1732 162.987 23.4052 162.072 24.4879C161.176 25.5519 160.038 26.2332 158.656 26.5319L158.6 26.6159L164.228 34.7639V34.8759H161.176L155.772 26.7558H152.916V34.8759Z" fill="#2B2B2B"/>
<path d="M173.808 17.9918L170.532 27.0359H177.196L173.92 17.9918H173.808ZM167.704 34.8759H164.848L172.408 14.8279H175.32L182.88 34.8759H180.024L178.092 29.4439H169.664L167.704 34.8759Z" fill="#2B2B2B"/>
<path d="M196.739 14.8279H200.071V14.9399L192.623 23.5358L200.575 34.7639V34.8759H197.411L190.887 25.5238L187.807 29.0798V34.8759H185.231V14.8279H187.807V25.1599H187.919L196.739 14.8279Z" fill="#2B2B2B"/>
<path d="M209.929 17.9918L206.653 27.0359H213.317L210.041 17.9918H209.929ZM203.825 34.8759H200.969L208.529 14.8279H211.441L219.001 34.8759H216.145L214.213 29.4439H205.785L203.825 34.8759Z" fill="#2B2B2B"/>
<path d="M0 41.8766V6.52369L17.2358 0.158203L34.6674 6.52369V41.8766L17.2358 35.3152V20.2339L6.07169 24.5429V39.5263L0 41.8766Z" fill="#00CCC0"/>
<path d="M17.2388 24.9936L5.96411 18.3654L17.2388 14.163L28.5477 18.3654L17.2388 24.9936Z" fill="#00766F"/>
<path d="M17.1547 14.1513L0.00305176 6.53088L17.1547 0.128418L34.5701 6.53088L17.1547 14.1513Z" fill="#00766F"/>
<path d="M5.97229 10.4398L17.2343 6.22876L28.4963 10.4398V18.3721L17.2343 14.1611L5.97229 18.3721V10.4398Z" fill="white"/>
<path d="M28.4963 24.5418L17.2343 20.2328V29.2424L28.4963 33.4534V24.5418Z" fill="white"/>
<g clip-path="url(#clip0_16_3)">
<path d="M5.97229 10.4398L17.2343 6.22876L28.4963 10.4398V18.3721L17.2343 14.1611L5.97229 18.3721V10.4398Z" fill="#CCCCCC"/>
<path d="M28.4963 24.5418L17.2343 20.2328V29.2424L28.4963 33.4534V24.5418Z" fill="#CCCCCC"/>
</g>
<path d="M22.0197 37.115L28.4966 33.4537L17.2307 29.2393V35.3131L22.0197 37.115Z" fill="#00766F"/>
<path d="M6.08251 24.5418L17.2344 20.2328V29.2424L6.08251 33.4534V24.5418Z" fill="white"/>
<path d="M6.08251 30.6183L17.2344 26.3094V35.319L6.08251 39.53V30.6183Z" fill="white"/>
<defs>
<clipPath id="clip0_16_3">
<rect width="11.5984" height="30.6875" fill="white" transform="translate(17.1124 6.02921)"/>
</clipPath>
</defs>
</svg>
