<svg width="31" height="28" viewBox="0 0 31 28" fill="none" xmlns="http://www.w3.org/2000/svg">
<path d="M7.85971 16.1368C9.12905 16.5101 10.0997 17.2194 10.7717 18.2648C11.5184 19.2354 11.8917 20.4301 11.8917 21.8488C11.8917 23.6408 11.3317 25.0968 10.2117 26.2168C9.09171 27.3368 7.71038 27.8968 6.06771 27.8968C4.27571 27.8968 2.81971 27.3368 1.69971 26.2168C0.65438 25.0221 0.131714 23.5661 0.131714 21.8488C0.131714 20.9528 0.20638 20.0941 0.355714 19.2728C0.579714 18.3768 0.990381 17.1074 1.58771 15.4648L6.29171 0.00875854H11.6677L7.85971 16.1368ZM26.8997 16.1368C28.169 16.5101 29.1397 17.2194 29.8117 18.2648C30.5584 19.2354 30.9317 20.4301 30.9317 21.8488C30.9317 23.6408 30.3717 25.0968 29.2517 26.2168C28.1317 27.3368 26.7504 27.8968 25.1077 27.8968C23.3157 27.8968 21.8597 27.3368 20.7397 26.2168C19.6944 25.0221 19.1717 23.5661 19.1717 21.8488C19.1717 20.9528 19.2464 20.0941 19.3957 19.2728C19.6197 18.3768 20.0304 17.1074 20.6277 15.4648L25.3317 0.00875854H30.7077L26.8997 16.1368Z" fill="#00CCC0"/>
</svg>
