<svg width="101" height="101" viewBox="0 0 101 101" fill="none" xmlns="http://www.w3.org/2000/svg">
<g clip-path="url(#clip0_10_35)">
<path fill-rule="evenodd" clip-rule="evenodd" d="M88.5952 18.9698H82.7599V12.7386H76.7835V0.219849H71.2658V12.7386H65.6364V18.9698H59.6188V31.4698H53.5305V100.026H94.6011V31.4698H88.5952V18.9698V18.9698ZM76.8776 24.8323H82.7599V31.0823H76.8776V24.8323ZM65.1129 24.9261H70.9952V31.1761H65.1129V24.9261V24.9261ZM65.2952 87.2511H59.4129V81.0011H65.2952V87.2511ZM65.2952 74.7573H59.4129V68.5073H65.2952V74.7573ZM65.2952 62.2636H59.4129V56.0136H65.2952V62.2636ZM65.2952 50.0261H59.4129V43.7761H65.2952V50.0261ZM77.0599 87.2511H71.1776V81.0011H77.0599V87.2511ZM77.0599 74.7573H71.1776V68.5073H77.0599V74.7573ZM77.0599 62.2636H71.1776V56.0136H77.0599V62.2636ZM77.0599 50.0261H71.1776V43.7761H77.0599V50.0261ZM88.8246 87.2511H82.9423V81.0011H88.8246V87.2511ZM88.8246 74.7573H82.9423V68.5073H88.8246V74.7573ZM88.8246 62.2636H82.9423V56.0136H88.8246V62.2636ZM88.8246 49.7073H82.9423V43.4573H88.8246V49.7073Z" fill="#00CCC0"/>
<path fill-rule="evenodd" clip-rule="evenodd" d="M41.5364 19.0823H35.4364V12.8511H29.854V0.319824H24.3952V12.8511H18.3187V19.0823H12.5599V31.5698H6.47168V100.026H47.5423V31.5698H41.5364V19.0823ZM29.7481 24.7823H35.6305V31.0323H29.7481V24.7823V24.7823ZM18.2364 24.7823H24.1187V31.0323H18.2364V24.7823V24.7823ZM18.2364 87.4823H12.354V81.2323H18.2364V87.4823ZM18.2364 74.9573H12.354V68.7073H18.2364V74.9573ZM18.2364 62.3448H12.354V56.0948H18.2364V62.3448ZM18.2364 50.0261H12.354V43.7761H18.2364V50.0261ZM30.0011 87.3323H24.1187V81.0823H30.0011V87.3323ZM30.0011 74.8636H24.1187V68.6136H30.0011V74.8636ZM30.0011 62.4073H24.1187V56.1573H30.0011V62.4073ZM30.0011 49.8698H24.1187V43.6198H30.0011V49.8698ZM41.7658 87.2698H35.8834V81.0198H41.7658V87.2698ZM41.7658 74.7823H35.8834V68.5323H41.7658V74.7823ZM41.7658 62.2948H35.8834V56.0448H41.7658V62.2948ZM41.7658 49.7448H35.8834V43.4948H41.7658V49.7448Z" fill="#00CCC0"/>
</g>
<defs>
<clipPath id="clip0_10_35">
<rect width="100" height="100" fill="white" transform="translate(0.589355 0.026062)"/>
</clipPath>
</defs>
</svg>
